<svg xmlns="http://www.w3.org/2000/svg" viewBox="0 0 512 512" width="512" height="512" role="img" aria-label="Precious Frame 雕版勳章圖示">
  <rect width="512" height="512" fill="#f3eddf"/>
  <defs>
    <path id="c-star" d="M0 -9 L2.5 -2.5 L9 0 L2.5 2.5 L0 9 L-2.5 2.5 L-9 0 L-2.5 -2.5 Z"/>
  </defs>

  <!-- 紅環勳章（無字） -->
  <circle cx="256" cy="256" r="240" fill="none" stroke="#8f2016" stroke-width="2"/>
  <circle cx="256" cy="256" r="214" fill="none" stroke="#b72c1d" stroke-width="36"/>
  <circle cx="256" cy="256" r="236" fill="none" stroke="#8f2016" stroke-width="1.5"/>
  <circle cx="256" cy="256" r="192" fill="none" stroke="#8f2016" stroke-width="1.5"/>

  <!-- 環帶裝飾點與星 -->
  <g fill="#f3eddf">
    <circle cx="256" cy="42" r="4"/>
    <circle cx="256" cy="470" r="4"/>
    <use href="#c-star" x="48" y="256"/>
    <use href="#c-star" x="464" y="256"/>
    <circle cx="100" cy="100" r="3"/>
    <circle cx="412" cy="100" r="3"/>
    <circle cx="100" cy="412" r="3"/>
    <circle cx="412" cy="412" r="3"/>
  </g>

  <!-- 內盤 -->
  <circle cx="256" cy="256" r="186" fill="#fbf7ee" stroke="#1c1915" stroke-width="1.5"/>
  <circle cx="256" cy="256" r="178" fill="none" stroke="#1c1915" stroke-width="0.75"/>

  <!-- 中央：影片膠卷 + 放大鏡（放大） -->
  <g fill="none" stroke="#1c1915">
    <rect x="108" y="214" width="296" height="92" stroke-width="2.5"/>
    <rect x="122" y="238" width="84" height="44" stroke-width="1.5"/>
    <rect x="214" y="238" width="84" height="44" stroke-width="1.5"/>
    <rect x="306" y="238" width="84" height="44" stroke-width="1.5"/>
  </g>
  <g fill="#1c1915">
    <rect x="118" y="222" width="12" height="9"/><rect x="138" y="222" width="12" height="9"/><rect x="158" y="222" width="12" height="9"/><rect x="178" y="222" width="12" height="9"/><rect x="198" y="222" width="12" height="9"/><rect x="218" y="222" width="12" height="9"/><rect x="238" y="222" width="12" height="9"/><rect x="258" y="222" width="12" height="9"/><rect x="278" y="222" width="12" height="9"/><rect x="298" y="222" width="12" height="9"/><rect x="318" y="222" width="12" height="9"/><rect x="338" y="222" width="12" height="9"/><rect x="358" y="222" width="12" height="9"/><rect x="378" y="222" width="12" height="9"/>
    <rect x="118" y="290" width="12" height="9"/><rect x="138" y="290" width="12" height="9"/><rect x="158" y="290" width="12" height="9"/><rect x="178" y="290" width="12" height="9"/><rect x="198" y="290" width="12" height="9"/><rect x="218" y="290" width="12" height="9"/><rect x="238" y="290" width="12" height="9"/><rect x="258" y="290" width="12" height="9"/><rect x="278" y="290" width="12" height="9"/><rect x="298" y="290" width="12" height="9"/><rect x="318" y="290" width="12" height="9"/><rect x="338" y="290" width="12" height="9"/><rect x="358" y="290" width="12" height="9"/><rect x="378" y="290" width="12" height="9"/>
  </g>
  <g stroke="#1c1915" stroke-width="0.7">
    <line x1="128" y1="248" x2="200" y2="248"/><line x1="128" y1="256" x2="200" y2="256"/><line x1="128" y1="264" x2="200" y2="264"/><line x1="128" y1="272" x2="200" y2="272"/>
    <line x1="312" y1="248" x2="384" y2="248"/><line x1="312" y1="256" x2="384" y2="256"/><line x1="312" y1="264" x2="384" y2="264"/><line x1="312" y1="272" x2="384" y2="272"/>
  </g>
  <use href="#c-star" x="256" y="260" fill="#b72c1d"/>

  <!-- 放大鏡 -->
  <circle cx="286" cy="246" r="64" fill="none" stroke="#1c1915" stroke-width="6"/>
  <circle cx="286" cy="246" r="54" fill="none" stroke="#1c1915" stroke-width="1.25"/>
  <line x1="332" y1="292" x2="372" y2="332" stroke="#1c1915" stroke-width="12" stroke-linecap="round"/>
</svg>
